<svg width="375" height="812" viewBox="0 0 375 812" fill="none" xmlns="http://www.w3.org/2000/svg">
<g opacity="0.15" filter="url(#filter0_f_3319_543)">
<circle cx="187.5" cy="466.5" r="208.5" fill="#009985"/>
</g>
<path opacity="0.42" fill-rule="evenodd" clip-rule="evenodd" d="M-39.1646 424C25.5583 357.923 105.415 519.728 197.835 516C281.991 512.605 331.405 349.253 395.835 403.5C466.056 462.624 497.676 625.169 483.953 715.934C470.344 805.942 418.8 886.826 339.562 931.639C261.713 975.667 170.194 968.091 84.7363 941.711C-11.0881 912.131 -115.134 873.718 -151.208 780.144C-189.195 681.608 -113.062 499.443 -39.1646 424Z" fill="#5CCDBC"/>
<path opacity="0.42" fill-rule="evenodd" clip-rule="evenodd" d="M19.3099 -378.283C97.3032 -328.561 -44.5798 -217.083 -21.8918 -127.414C-1.23221 -45.7621 179.836 -78.5 128.985 43.1623C93.5855 127.859 -8.16405 120.5 -33.6641 206.5C-124.545 211.725 -311.489 175.805 -371.664 107.5C-430.785 40.3908 -469.979 -61.325 -461.771 -150.385C-452.567 -250.247 -436.412 -359.975 -352.277 -414.552C-263.68 -472.024 -69.7384 -435.052 19.3099 -378.283Z" fill="url(#paint0_linear_3319_543)"/>
<g style="mix-blend-mode:multiply">
<path fill-rule="evenodd" clip-rule="evenodd" d="M-62.9255 529.734C5.39245 467.381 79.0903 588.499 171.574 589.946C255.788 591.264 337.363 438.736 398.656 496.503C465.46 559.462 499.038 713.126 480.258 802.981C461.635 892.087 405.647 969.962 324.027 1010.27C243.837 1049.88 152.885 1037.19 69.0366 1006.07C-24.9831 971.179 -126.717 927.005 -157.5 831.561C-189.915 731.053 -140.927 600.925 -62.9255 529.734Z" fill="url(#paint1_linear_3319_543)"/>
</g>
<path fill-rule="evenodd" clip-rule="evenodd" d="M-57.6648 680.5C7.05816 614.423 77.4154 689.728 169.835 686C253.991 682.605 324.406 539.253 388.835 593.5C459.056 652.624 504.61 801.525 490.887 892.29C477.277 982.298 425.733 1063.18 346.496 1107.99C268.647 1152.02 177.128 1144.45 91.6702 1118.07C-4.15424 1088.49 -108.2 1050.07 -144.274 956.5C-182.261 857.964 -131.562 755.943 -57.6648 680.5Z" fill="url(#paint2_linear_3319_543)"/>
<path fill-rule="evenodd" clip-rule="evenodd" d="M461.637 443.257C429.771 365.293 255.053 423.01 288.405 295.436C311.623 206.624 413.403 199.694 426.636 110.974C515.896 93.1014 706.025 102.548 775.154 161.775C843.072 219.965 896.094 315.206 900.41 404.539C922.213 855.811 606.836 798.507 461.637 443.257Z" fill="url(#paint3_linear_3319_543)"/>
<defs>
<filter id="filter0_f_3319_543" x="-151" y="128" width="677" height="677" filterUnits="userSpaceOnUse" color-interpolation-filters="sRGB">
<feFlood flood-opacity="0" result="BackgroundImageFix"/>
<feBlend mode="normal" in="SourceGraphic" in2="BackgroundImageFix" result="shape"/>
<feGaussianBlur stdDeviation="65" result="effect1_foregroundBlur_3319_543"/>
</filter>
<linearGradient id="paint0_linear_3319_543" x1="-233.952" y1="-191.65" x2="188.452" y2="223.65" gradientUnits="userSpaceOnUse">
<stop offset="0.671598" stop-color="#90D6CC"/>
<stop offset="1" stop-color="white" stop-opacity="0"/>
</linearGradient>
<linearGradient id="paint1_linear_3319_543" x1="239.738" y1="375.676" x2="110.666" y2="1080.34" gradientUnits="userSpaceOnUse">
<stop stop-color="#009985" stop-opacity="0.15"/>
<stop offset="1" stop-color="white" stop-opacity="0"/>
</linearGradient>
<linearGradient id="paint2_linear_3319_543" x1="228.31" y1="485.02" x2="132.971" y2="1197.06" gradientUnits="userSpaceOnUse">
<stop stop-color="#44BCAB"/>
<stop offset="1" stop-color="white" stop-opacity="0"/>
</linearGradient>
<linearGradient id="paint3_linear_3319_543" x1="613.405" y1="148.568" x2="165.095" y2="433.933" gradientUnits="userSpaceOnUse">
<stop offset="0.406936" stop-color="#44BCAB" stop-opacity="0.8"/>
<stop offset="0.843444" stop-color="white" stop-opacity="0"/>
</linearGradient>
</defs>
</svg>
